# xmcd
#
# Track frame offsets: 
#        150
#        13402
#        32276
#        46650
#        62702
#        78284
#        92267
#        109618
#        126746
#        141352
#        158901
#        174233
#        188991
#        205596
#
# Disc length: 2911 seconds
#
# Revision: 0
# Processed by: cddbd v1.5.1PL2 Copyright (c) Steve Scherf et al.
# Submitted via: ExactAudioCopy v0.95a5
#
DISCID=b00b5d0e
DTITLE=Various Artist - A Marca do Sul
DYEAR=1900
DGENRE=Gaucha
TTITLE0=Me Chama no Fole - Tche Barbaridade
TTITLE1=Gaiteiro Socador - Minuano
TTITLE2=Pinga na Goela - Os Serranos
TTITLE3=O Som do Povo - Tche Garotos
TTITLE4=Flor de Morenaca - Chiquito e Bordoneio
TTITLE5=Temporal - Cassia Abreu
TTITLE6=Ela Pegou Meu Coracao - Sandro Coelho
TTITLE7=Pra Ser Feliz no Sul - Walther Morais
TTITLE8=Gaucho Cento por Cento - Eco do Minuano e Bonitinho
TTITLE9=Cuitelinho - Ibere
TTITLE10=Daqui a Pouco Eu To Ai - Os Monarcas
TTITLE11=Curva do Rio - Mate Quente
TTITLE12=Guapeando - Pedro Ortaca
TTITLE13=Fim de Semana - Os Tiranos
EXTD=
EXTT0=
EXTT1=
EXTT2=
EXTT3=
EXTT4=
EXTT5=
EXTT6=
EXTT7=
EXTT8=
EXTT9=
EXTT10=
EXTT11=
EXTT12=
EXTT13=
PLAYORDER=
